<svg xmlns="http://www.w3.org/2000/svg" viewBox="0 0 1200 900">
<defs><linearGradient id="gold" x1="0" y1="0" x2="1" y2="1"><stop stop-color="#f6cf65"/><stop offset=".5" stop-color="#c88a16"/><stop offset="1" stop-color="#f2c34d"/></linearGradient></defs>
<rect width="1200" height="900" fill="white"/>
<path d="M265 325L600 80l335 245" fill="none" stroke="#0b1d2d" stroke-width="42" stroke-linejoin="round"/>
<path d="M310 330L600 120l290 210" fill="none" stroke="url(#gold)" stroke-width="12"/>
<text x="250" y="535" font-family="Georgia,serif" font-size="430" font-weight="700" fill="url(#gold)">L</text>
<rect x="505" y="315" width="280" height="155" rx="18" fill="white" stroke="#0b1d2d" stroke-width="12"/>
<rect x="475" y="425" width="340" height="62" rx="10" fill="#0b1d2d"/>
<rect x="520" y="355" width="75" height="48" rx="12" fill="#0b1d2d"/>
<rect x="695" y="355" width="75" height="48" rx="12" fill="#0b1d2d"/>
<rect x="607" y="352" width="76" height="52" rx="12" fill="url(#gold)"/>
<path d="M820 315h55l20 60h-95z" fill="url(#gold)"/><rect x="845" y="375" width="8" height="48" fill="#0b1d2d"/><circle cx="849" cy="430" r="9" fill="url(#gold)"/><rect x="805" y="438" width="90" height="12" rx="6" fill="#0b1d2d"/>
<rect x="570" y="165" width="70" height="70" fill="#0b1d2d"/><path d="M605 165v70M570 200h70" stroke="white" stroke-width="8"/>
<path d="M180 550c190-60 380 15 590-5 85-8 150-35 210-75" fill="none" stroke="url(#gold)" stroke-width="18"/>
<path d="M180 575c210-50 395 15 600-5 90-10 150-35 200-70" fill="none" stroke="#0b1d2d" stroke-width="12"/>
<text x="600" y="675" text-anchor="middle" font-family="Georgia,serif" font-size="118" font-weight="700" fill="#0b1d2d">L<tspan>fancy</tspan><tspan fill="url(#gold)">Home</tspan></text>
<text x="600" y="725" text-anchor="middle" font-family="Arial,sans-serif" font-size="38" font-weight="700" letter-spacing="9" fill="#0b1d2d">HOME <tspan fill="#c88a16">&amp;</tspan> COMFORT</text>
<g font-family="Arial,sans-serif" font-size="20" font-weight="700" fill="#0b1d2d" text-anchor="middle"><text x="155" y="790">MATTRESSES</text><text x="335" y="790">PILLOWS</text><text x="515" y="790">CARPETS</text><text x="685" y="790">MATS</text><text x="850" y="790">MOPPERS</text><text x="1050" y="790">HOME ESSENTIALS</text></g>
<g stroke="#c88a16" stroke-width="3"><line x1="245" y1="755" x2="245" y2="805"/><line x1="425" y1="755" x2="425" y2="805"/><line x1="600" y1="755" x2="600" y2="805"/><line x1="765" y1="755" x2="765" y2="805"/><line x1="940" y1="755" x2="940" y2="805"/></g>
</svg>